<svg xmlns="http://www.w3.org/2000/svg" viewBox="0 0 1080 1080"><clipPath id="a"><path d="M540 1080C241.8 1080 0 838.2 0 540S241.8 0 540 0s540 241.8 540 540-241.7 540-540 540z"/></clipPath><path clip-path="url(#a)" fill="#f50514" d="M0 0h1080v1080H0z"/><linearGradient id="b" x1="1016.4" x2="299.61" y1="1143.7" y2="426.9" gradientUnits="userSpaceOnUse"><stop stop-opacity="0" offset="0"/><stop offset="1"/></linearGradient><path clip-path="url(#a)" fill="url(#b)" opacity=".2" d="M280.2 446.3l134.1 134.1-1.7 91.1 10.7 28.1L540 816.3l-284.5 73.2 191 191 633.5-.5V700.6L795.9 416.5z"/><path d="M795.6 416.7L569.9 191c-16.6-16.6-43.4-16.6-59.9 0L284.3 416.7c-15.6 15.6-4.5 42.2 17.5 42.2h110.9v212.6c0 23.4 19.1 42.5 42.5 42.5h170.1c23.4 0 42.5-19.1 42.5-42.5V458.9h110.5c21.9 0 32.9-26.6 17.3-42.2zM242.4 858.9c0 23.4 19.1 42.5 42.5 42.5h510.2c23.4 0 42.5-19.1 42.5-42.5s-19.1-42.5-42.5-42.5H284.9c-23.4-.1-42.5 19.1-42.5 42.5z" clip-path="url(#a)" fill="#fff"/></svg>
