<svg version="1.0" xmlns="http://www.w3.org/2000/svg" width="682.667" height="682.667" viewBox="0 0 512 512"><path d="M222.6 1.6C133.3 13.1 55.2 72.5 19.7 156.1 10.8 177.1 4.4 201 1.5 224c-2 16.3-2 47.7 0 64 13.2 107 93.1 194.8 198.8 218.4 33.9 7.6 77.5 7.6 111.4 0 46.8-10.4 88.1-32.8 122.7-66.3 42.5-41.3 68.9-94.1 76.1-152.1 2-16.3 2-47.7 0-64C496.2 108.2 403.8 15.8 288 1.5c-15.5-1.9-50.2-1.8-65.4.1zM264.4 87c2.7 1.3 23 20.8 59.9 57.7l55.7 55.8v4.3c0 4.8-2 9.5-4.7 10.8-1 .5-14.6 1.1-30.3 1.4l-28.5.5-.5 54.2c-.6 60.9.1 55.8-8.4 62.7l-3.8 3.1-46.4.3c-44.2.2-46.5.2-50.1-1.7-4.8-2.4-7.8-5.6-9.8-10.3-1.3-3.2-1.5-11.1-1.5-56.3V217h-28c-19.5 0-28.7-.4-30.5-1.2-3.5-1.6-5.5-5.7-5.5-11v-4.3l55.8-55.7c35.5-35.6 57.1-56.6 59.7-57.8 5.1-2.5 11.7-2.5 16.9 0zm118.1 301.1c5.5 1.5 12 8.2 13.5 13.9 2.2 8.2-.8 16.5-7.9 21.5l-4.3 3H128.2l-4.3-3c-10.4-7.4-11.6-21.6-2.5-30.4 6.5-6.3-.7-6 134.1-6.1 87.1 0 124.2.3 127 1.1z"/></svg>
